<svg width="48" height="21" viewBox="0 0 48 21" fill="none" xmlns="http://www.w3.org/2000/svg">
<path d="M0 5.24161H3.5424L4.608 17.28H4.896L6.6528 5.24161H10.3968L12.1248 17.28H12.4128L13.5072 5.24161H16.8768L15.12 20.1024H10.0512L8.5824 9.84962H8.2944L6.8256 20.1024H1.7568L0 5.24161Z" fill="white"/>
<path d="M27.6368 17.3952H27.464C27.1376 18.24 26.6192 18.96 25.9088 19.5552C25.2176 20.1504 24.2768 20.448 23.0864 20.448C22.376 20.448 21.7232 20.3328 21.128 20.1024C20.5328 19.8528 20.024 19.488 19.6016 19.008C19.1792 18.528 18.8432 17.9424 18.5936 17.2512C18.3632 16.56 18.248 15.7632 18.248 14.8608V5.24161H22.5104V14.2848C22.5104 16.2048 23.3456 17.1648 25.016 17.1648C25.3424 17.1648 25.6592 17.1264 25.9664 17.0496C26.2928 16.9536 26.5712 16.8192 26.8016 16.6464C27.0512 16.4544 27.2528 16.224 27.4064 15.9552C27.56 15.6864 27.6368 15.3696 27.6368 15.0048V5.24161H31.8992V20.1024H27.6368V17.3952Z" fill="white"/>
<path d="M41.6871 20.1024C40.1511 20.1024 39.0087 19.6992 38.2599 18.8928C37.5111 18.0864 37.1367 17.0592 37.1367 15.8112V8.55362H33.1047V5.24161H35.7255C36.3591 5.24161 36.8103 5.11681 37.0791 4.86721C37.3479 4.61761 37.4823 4.15681 37.4823 3.48481V0H41.3991V5.24161H47.1879V8.55362H41.3991V16.7904H47.1879V20.1024H41.6871Z" fill="white"/>
</svg>
